<svg xmlns="http://www.w3.org/2000/svg" viewBox="0 0 544 306" fill="none">
  <rect width="544" height="306" rx="8" fill="#EEF2FF"/>
  <rect x="40" y="40" width="464" height="226" rx="12" fill="#E0E7FF" stroke="#818CF8" stroke-width="2"/>
  <!-- Book -->
  <g transform="translate(180, 80)">
    <path d="M0 20C0 8.954 8.954 0 20 0h60c11.046 0 20 8.954 20 20v120c0 5.523-4.477 10-10 10H10c-5.523 0-10-4.477-10-10V20z" fill="#6366F1" opacity="0.9"/>
    <path d="M100 20c0-11.046 8.954-20 20-20h60c11.046 0 20 8.954 20 20v120c0 5.523-4.477 10-10 10h-80c-5.523 0-10-4.477-10-10V20z" fill="#818CF8" opacity="0.85"/>
    <rect x="15" y="30" width="70" height="4" rx="2" fill="white" opacity="0.6"/>
    <rect x="15" y="42" width="55" height="4" rx="2" fill="white" opacity="0.4"/>
    <rect x="15" y="54" width="65" height="4" rx="2" fill="white" opacity="0.4"/>
    <rect x="115" y="30" width="70" height="4" rx="2" fill="white" opacity="0.6"/>
    <rect x="115" y="42" width="55" height="4" rx="2" fill="white" opacity="0.4"/>
    <rect x="115" y="54" width="65" height="4" rx="2" fill="white" opacity="0.4"/>
  </g>
  <!-- Question mark -->
  <g transform="translate(340, 70)">
    <circle cx="40" cy="40" r="40" fill="#4F46E5" opacity="0.15"/>
    <text x="40" y="58" text-anchor="middle" font-family="Arial, sans-serif" font-size="52" font-weight="bold" fill="#4F46E5">?</text>
  </g>
  <!-- Checkboxes -->
  <g transform="translate(100, 180)">
    <rect width="18" height="18" rx="3" fill="#4F46E5"/>
    <path d="M4 9l4 4 7-8" stroke="white" stroke-width="2.5" fill="none" stroke-linecap="round" stroke-linejoin="round"/>
    <rect x="26" y="4" width="80" height="10" rx="3" fill="#A5B4FC" opacity="0.6"/>
  </g>
  <g transform="translate(100, 206)">
    <rect width="18" height="18" rx="3" stroke="#818CF8" stroke-width="2" fill="white"/>
    <rect x="26" y="4" width="60" height="10" rx="3" fill="#A5B4FC" opacity="0.4"/>
  </g>
  <!-- Title -->
  <text x="272" y="276" text-anchor="middle" font-family="Arial, sans-serif" font-size="16" font-weight="600" fill="#4338CA">题库智能管理系统</text>
</svg>