<svg t="1772115393842" class="icon" viewBox="0 0 1024 1024" version="1.1" xmlns="http://www.w3.org/2000/svg" p-id="1961" width="48" height="48"><path d="M105.152 523.456h804.608l-26.752 141.056-105.216 105.92-96 76.224-22.4 86.528H507.392l-157.76-20.16-17.28-66.368-187.008-150.784z" fill="#FFCB83" p-id="1962"></path><path d="M909.44 371.008H105.408c-42.752 0-76.928 36.608-73.152 79.36l0.768 7.936c17.92 169.28 123.2 325.952 267.904 397.44l4.736 2.24v26.688c0 40.512 32.832 73.28 73.28 73.28h256.96l3.648-0.064a73.28 73.28 0 0 0 69.632-73.216v-26.688l4.736-2.304c147.008-72.576 253.312-233.024 268.672-405.312a73.28 73.28 0 0 0-73.152-79.36zM105.856 451.328l-0.64-7.424c0 0.256 0 0.256 0.128 0.256H909.44c0.192 0 0.256 0.064 0.32-0.256-13.952 156.224-115.84 301.76-250.88 356.352a36.544 36.544 0 0 0-22.848 33.92v50.496l-257.024 0.192a0.128 0.128 0 0 1-0.192-0.192v-50.496a36.544 36.544 0 0 0-22.848-33.92c-132.864-53.76-233.6-195.52-250.112-348.928z" fill="#333333" p-id="1963"></path><path d="M624.512 103.68C662.464 35.328 747.968 11.52 814.336 51.328c64.128 38.528 86.912 122.624 53.184 188.416l-2.176 4.16-86.656 170.368a36.544 36.544 0 0 1-66.368-30.528l1.152-2.56 87.296-171.52c18.496-33.408 7.296-76.736-24.128-95.616a62.976 62.976 0 0 0-85.76 21.12l-1.92 3.072-139.328 270.4a36.544 36.544 0 0 1-66.24-30.912l1.28-2.56L624.448 103.68zM277.76 503.04c0.128 44.416 37.888 93.44 89.92 121.792l2.24 1.216a36.544 36.544 0 1 1-30.464 66.432c-75.072-38.144-132.032-108.8-134.72-184.064l-0.064-5.248L277.76 503.04z" fill="#333333" p-id="1964"></path></svg>